<svg xmlns="http://www.w3.org/2000/svg" viewBox="0 0 20 17"><defs><style>.cls-1{fill:#6ac6e7;}</style></defs><path class="cls-1" d="M17.49,4.07v.52c0,5.46-4,11.72-11.35,11.72A11,11,0,0,1,0,14.47a7,7,0,0,0,1,0,7.9,7.9,0,0,0,5-1.75A4,4,0,0,1,2.2,9.88a1.92,1.92,0,0,0,.72.09A4.12,4.12,0,0,0,4,9.84,4.1,4.1,0,0,1,.8,5.77v0a4,4,0,0,0,1.78.52A4.2,4.2,0,0,1,1.36.74,11.12,11.12,0,0,0,9.61,5a3.2,3.2,0,0,1-.13-.92,4.05,4.05,0,0,1,4-4.11,3.87,3.87,0,0,1,2.88,1.27,8.12,8.12,0,0,0,2.54-1A4.2,4.2,0,0,1,17.2,2.58a9.88,9.88,0,0,0,2.29-.66,9.46,9.46,0,0,1-2,2.14"/></svg>