<svg width="31" height="64" viewBox="0 0 31 64" fill="none" xmlns="http://www.w3.org/2000/svg">
<mask id="mask0" mask-type="alpha" maskUnits="userSpaceOnUse" x="0" y="0" width="31" height="64">
<rect width="31" height="64" fill="#C4C4C4"/>
</mask>
<g mask="url(#mask0)">
<mask id="path-2-inside-1" fill="white">
<path fill-rule="evenodd" clip-rule="evenodd" d="M21 29.9959C26.8454 27.7768 31 22.1236 31 15.5C31 6.93959 24.0604 0 15.5 0C6.93959 0 0 6.93959 0 15.5C0 22.1236 4.1546 27.7768 10 29.9959L10 99.0041C4.15459 101.223 0 106.876 0 113.5C0 122.06 6.93959 129 15.5 129C24.0604 129 31 122.06 31 113.5C31 106.876 26.8454 101.223 21 99.0041L21 29.9959Z"/>
</mask>
<path fill-rule="evenodd" clip-rule="evenodd" d="M21 29.9959C26.8454 27.7768 31 22.1236 31 15.5C31 6.93959 24.0604 0 15.5 0C6.93959 0 0 6.93959 0 15.5C0 22.1236 4.1546 27.7768 10 29.9959L10 99.0041C4.15459 101.223 0 106.876 0 113.5C0 122.06 6.93959 129 15.5 129C24.0604 129 31 122.06 31 113.5C31 106.876 26.8454 101.223 21 99.0041L21 29.9959Z" fill="white"/>
<path d="M21 29.9959L19.9353 27.1912L18 27.9258L18 29.9959L21 29.9959ZM10 29.9959L13 29.9959L13 27.9258L11.0647 27.1912L10 29.9959ZM10 99.0041L11.0647 101.809L13 101.074L13 99.0041L10 99.0041ZM21 99.0041L18 99.0041L18 101.074L19.9353 101.809L21 99.0041ZM28 15.5C28 20.8369 24.6541 25.3997 19.9353 27.1912L22.0647 32.8006C29.0367 30.1538 34 23.4103 34 15.5H28ZM15.5 3C22.4036 3 28 8.59644 28 15.5H34C34 5.28273 25.7173 -3 15.5 -3V3ZM3 15.5C3 8.59644 8.59644 3 15.5 3V-3C5.28273 -3 -3 5.28273 -3 15.5H3ZM11.0647 27.1912C6.34586 25.3998 3 20.8369 3 15.5H-3C-3 23.4103 1.96333 30.1538 8.93527 32.8006L11.0647 27.1912ZM13 99.0041L13 29.9959L7 29.9959L7 99.0041L13 99.0041ZM3 113.5C3 108.163 6.34586 103.6 11.0647 101.809L8.93526 96.1994C1.96333 98.8462 -3 105.59 -3 113.5H3ZM15.5 126C8.59644 126 3 120.404 3 113.5H-3C-3 123.717 5.28273 132 15.5 132V126ZM28 113.5C28 120.404 22.4036 126 15.5 126V132C25.7173 132 34 123.717 34 113.5H28ZM19.9353 101.809C24.6541 103.6 28 108.163 28 113.5H34C34 105.59 29.0367 98.8462 22.0647 96.1994L19.9353 101.809ZM18 29.9959L18 99.0041L24 99.0041L24 29.9959L18 29.9959Z" fill="black" mask="url(#path-2-inside-1)"/>
<circle cx="15.5" cy="15.5" r="9.5" fill="#D4E6D1"/>
</g>
</svg>
