<svg width="31" height="98" viewBox="0 0 31 98" fill="none" xmlns="http://www.w3.org/2000/svg">
<mask id="mask0" mask-type="alpha" maskUnits="userSpaceOnUse" x="0" y="0" width="31" height="98">
<rect width="31" height="98" transform="matrix(1 0 0 -1 0 98)" fill="#C4C4C4"/>
</mask>
<g mask="url(#mask0)">
<path fill-rule="evenodd" clip-rule="evenodd" d="M10 136L10 63L21 63L21 136L10 136Z" fill="black"/>
<mask id="path-3-inside-1" fill="white">
<path fill-rule="evenodd" clip-rule="evenodd" d="M21 -34.0041C26.8454 -36.2232 31 -41.8764 31 -48.5C31 -57.0604 24.0604 -64 15.5 -64C6.93959 -64 0 -57.0604 0 -48.5C0 -41.8764 4.1546 -36.2232 10 -34.0041L10 35.0041C4.1546 37.2232 0 42.8764 0 49.5C0 58.0604 6.93959 65 15.5 65C24.0604 65 31 58.0604 31 49.5C31 42.8764 26.8454 37.2232 21 35.0041L21 -34.0041Z"/>
</mask>
<path fill-rule="evenodd" clip-rule="evenodd" d="M21 -34.0041C26.8454 -36.2232 31 -41.8764 31 -48.5C31 -57.0604 24.0604 -64 15.5 -64C6.93959 -64 0 -57.0604 0 -48.5C0 -41.8764 4.1546 -36.2232 10 -34.0041L10 35.0041C4.1546 37.2232 0 42.8764 0 49.5C0 58.0604 6.93959 65 15.5 65C24.0604 65 31 58.0604 31 49.5C31 42.8764 26.8454 37.2232 21 35.0041L21 -34.0041Z" fill="white"/>
<path d="M21 -34.0041L19.9353 -36.8088L18 -36.0742L18 -34.0041L21 -34.0041ZM10 -34.0041L13 -34.0041L13 -36.0742L11.0647 -36.8088L10 -34.0041ZM10 35.0041L11.0647 37.8088L13 37.0742L13 35.0041L10 35.0041ZM21 35.0041L18 35.0041L18 37.0742L19.9353 37.8088L21 35.0041ZM28 -48.5C28 -43.1631 24.6541 -38.6003 19.9353 -36.8088L22.0647 -31.1994C29.0367 -33.8462 34 -40.5897 34 -48.5H28ZM15.5 -61C22.4036 -61 28 -55.4036 28 -48.5H34C34 -58.7173 25.7173 -67 15.5 -67V-61ZM3 -48.5C3 -55.4036 8.59644 -61 15.5 -61V-67C5.28273 -67 -3 -58.7173 -3 -48.5H3ZM11.0647 -36.8088C6.34586 -38.6002 3 -43.1631 3 -48.5H-3C-3 -40.5897 1.96333 -33.8462 8.93527 -31.1994L11.0647 -36.8088ZM13 35.0041L13 -34.0041L7 -34.0041L7 35.0041L13 35.0041ZM3 49.5C3 44.1631 6.34586 39.6003 11.0647 37.8088L8.93526 32.1994C1.96333 34.8462 -3 41.5897 -3 49.5H3ZM15.5 62C8.59644 62 3 56.4036 3 49.5H-3C-3 59.7173 5.28273 68 15.5 68V62ZM28 49.5C28 56.4036 22.4036 62 15.5 62V68C25.7173 68 34 59.7173 34 49.5H28ZM19.9353 37.8088C24.6541 39.6002 28 44.1631 28 49.5H34C34 41.5897 29.0367 34.8462 22.0647 32.1994L19.9353 37.8088ZM18 -34.0041L18 35.0041L24 35.0041L24 -34.0041L18 -34.0041Z" fill="black" mask="url(#path-3-inside-1)"/>
</g>
</svg>
