<svg width="22" height="22" viewBox="0 0 22 22" fill="none" xmlns="http://www.w3.org/2000/svg">
<path fill-rule="evenodd" clip-rule="evenodd" d="M21.56 11.25C21.56 10.47 21.49 9.71998 21.36 8.99998H11V13.255H16.92C16.665 14.63 15.89 15.795 14.725 16.575V19.335H18.28C20.36 17.42 21.56 14.6 21.56 11.25V11.25Z" fill="#4285F4"/>
<path fill-rule="evenodd" clip-rule="evenodd" d="M11.0001 22C13.9701 22 16.4601 21.015 18.2801 19.335L14.7251 16.575C13.7401 17.235 12.4801 17.625 11.0001 17.625C8.13505 17.625 5.71005 15.69 4.84505 13.09H1.17005V15.94C2.98005 19.535 6.70005 22 11.0001 22V22Z" fill="#34A853"/>
<path fill-rule="evenodd" clip-rule="evenodd" d="M4.845 13.09C4.625 12.43 4.5 11.725 4.5 11C4.5 10.275 4.625 9.56998 4.845 8.90998V6.05998H1.17C0.425 7.54498 0 9.22498 0 11C0 12.775 0.425 14.455 1.17 15.94L4.845 13.09V13.09Z" fill="#FBBC05"/>
<path fill-rule="evenodd" clip-rule="evenodd" d="M11.0001 4.375C12.6151 4.375 14.0651 4.93 15.2051 6.02L18.3601 2.865C16.4551 1.09 13.9651 0 11.0001 0C6.70005 0 2.98005 2.465 1.17005 6.06L4.84505 8.91C5.71005 6.31 8.13505 4.375 11.0001 4.375V4.375Z" fill="#EA4335"/>
</svg>
