<svg width="374" height="111" viewBox="0 0 374 111" fill="none" xmlns="http://www.w3.org/2000/svg">
<path fill-rule="evenodd" clip-rule="evenodd" d="M351 75C357.075 75 362 70.5228 362 65C362 59.4772 357.075 55 351 55C344.925 55 340 59.4772 340 65C340 70.5228 344.925 75 351 75Z" fill="#F0F113"/>
<path fill-rule="evenodd" clip-rule="evenodd" d="M303 75C309.075 75 314 70.5228 314 65C314 59.4772 309.075 55 303 55C296.925 55 292 59.4772 292 65C292 70.5228 296.925 75 303 75Z" fill="#F0F113"/>
<path fill-rule="evenodd" clip-rule="evenodd" d="M254 75C260.075 75 265 70.5228 265 65C265 59.4772 260.075 55 254 55C247.925 55 243 59.4772 243 65C243 70.5228 247.925 75 254 75Z" fill="#F0F113"/>
<g filter="url(#filter0_d)">
<path d="M25.8871 82.729C21.7291 82.729 17.8681 82.324 14.3041 81.514C10.7401 80.704 7.85113 79.678 5.63713 78.436C4.55713 77.734 3.72013 76.87 3.12612 75.844C2.58613 74.764 2.31613 73.657 2.31613 72.523C2.31613 71.011 2.77513 69.688 3.69313 68.554C4.61113 67.42 5.82613 66.853 7.33813 66.853C8.58013 66.853 9.84913 67.231 11.1451 67.987C12.8731 68.851 15.0871 69.634 17.7871 70.336C20.5411 70.984 23.4571 71.308 26.5351 71.308C29.6131 71.308 31.9621 70.903 33.5821 70.093C35.2021 69.283 36.0121 68.095 36.0121 66.529C36.0121 64.855 35.1211 63.559 33.3391 62.641C31.5571 61.669 28.8031 60.643 25.0771 59.563C21.0811 58.375 17.8141 57.214 15.2761 56.08C12.7381 54.946 10.5511 53.272 8.71513 51.058C6.87913 48.79 5.96113 45.874 5.96113 42.31C5.96113 38.692 6.96013 35.506 8.95813 32.752C11.0101 29.998 13.8991 27.892 17.6251 26.434C21.3511 24.922 25.6981 24.166 30.6661 24.166C34.7161 24.166 38.4421 24.625 41.8441 25.543C45.3001 26.407 48.0001 27.595 49.9441 29.107C51.5641 30.349 52.3741 31.996 52.3741 34.048C52.3741 35.614 51.8611 36.991 50.8351 38.179C49.8631 39.313 48.5941 39.88 47.0281 39.88C45.6781 39.88 44.3821 39.475 43.1401 38.665C41.4661 37.855 39.4951 37.153 37.2271 36.559C34.9591 35.911 32.6371 35.587 30.2611 35.587C27.3451 35.587 25.0231 36.073 23.2951 37.045C21.6211 37.963 20.7841 39.259 20.7841 40.933C20.7841 42.661 21.6481 43.984 23.3761 44.902C25.1581 45.82 27.9661 46.846 31.8001 47.98C35.7421 49.168 38.9551 50.329 41.4391 51.463C43.9771 52.543 46.1641 54.163 48.0001 56.323C49.8361 58.483 50.7541 61.318 50.7541 64.828C50.7541 70.552 48.5941 74.98 44.2741 78.112C39.9541 81.19 33.8251 82.729 25.8871 82.729ZM95.1472 41.338C97.3072 41.338 98.9812 41.959 100.169 43.201C101.411 44.389 101.951 45.982 101.789 47.98L98.4682 90.748C98.3602 92.638 97.5502 94.204 96.0382 95.446C94.5802 96.688 92.7442 97.309 90.5302 97.309C88.4242 97.309 86.7772 96.715 85.5892 95.527C84.4552 94.393 83.9422 92.881 84.0502 90.991L85.1032 77.626C83.8072 79.246 82.1602 80.488 80.1622 81.352C78.2182 82.216 76.0312 82.648 73.6012 82.648C70.2532 82.648 67.2832 81.892 64.6912 80.38C62.1532 78.814 60.1822 76.6 58.7782 73.738C57.3742 70.876 56.6722 67.474 56.6722 63.532C56.6722 59.212 57.4552 55.351 59.0212 51.949C60.6412 48.547 62.8822 45.901 65.7442 44.011C68.6602 42.121 72.0082 41.176 75.7882 41.176C80.9182 41.176 84.9142 43.039 87.7762 46.765C88.1542 45.091 88.9912 43.768 90.2872 42.796C91.5832 41.824 93.2032 41.338 95.1472 41.338ZM78.6232 72.037C81.0532 72.037 82.9702 71.065 84.3742 69.121C85.8322 67.177 86.5612 64.639 86.5612 61.507C86.5612 58.321 85.9132 55.918 84.6172 54.298C83.3212 52.624 81.4312 51.787 78.9472 51.787C76.4632 51.787 74.4922 52.759 73.0342 54.703C71.6302 56.647 70.9282 59.239 70.9282 62.479C70.9282 65.557 71.5762 67.933 72.8722 69.607C74.2222 71.227 76.1392 72.037 78.6232 72.037ZM143.747 41.338C146.015 41.338 147.716 41.932 148.85 43.12C150.038 44.308 150.524 45.928 150.308 47.98L148.121 75.925C147.959 77.869 147.176 79.462 145.772 80.704C144.422 81.892 142.64 82.486 140.426 82.486C138.59 82.486 137.105 82.027 135.971 81.109C134.837 80.191 134.216 78.949 134.108 77.383C132.704 79.003 130.895 80.299 128.681 81.271C126.521 82.189 124.172 82.648 121.634 82.648C117.314 82.648 114.02 81.433 111.752 79.003C109.484 76.519 108.35 72.928 108.35 68.23C108.35 67.636 108.404 66.691 108.512 65.395L109.889 47.98C110.051 45.928 110.834 44.308 112.238 43.12C113.642 41.932 115.478 41.338 117.746 41.338C119.96 41.338 121.634 41.932 122.768 43.12C123.956 44.308 124.469 45.928 124.307 47.98L122.93 64.585L122.849 65.8C122.849 67.69 123.281 69.148 124.145 70.174C125.009 71.146 126.278 71.632 127.952 71.632C129.95 71.632 131.516 70.957 132.65 69.607C133.784 68.203 134.432 66.34 134.594 64.018L135.89 47.98C136.106 45.928 136.916 44.308 138.32 43.12C139.724 41.932 141.533 41.338 143.747 41.338ZM163.318 82.486C161.266 82.486 159.565 81.919 158.215 80.785C156.919 79.651 156.352 78.004 156.514 75.844L158.782 48.061C158.998 45.847 159.835 44.173 161.293 43.039C162.751 41.905 164.506 41.338 166.558 41.338C168.61 41.338 170.284 41.905 171.58 43.039C172.876 44.173 173.416 45.847 173.2 48.061L170.932 75.844C170.77 78.004 169.96 79.651 168.502 80.785C167.098 81.919 165.37 82.486 163.318 82.486ZM167.53 35.668C165.1 35.668 163.156 35.047 161.698 33.805C160.294 32.509 159.592 30.808 159.592 28.702C159.592 26.596 160.294 24.922 161.698 23.68C163.156 22.438 165.1 21.817 167.53 21.817C169.906 21.817 171.823 22.438 173.281 23.68C174.739 24.922 175.468 26.596 175.468 28.702C175.468 30.808 174.739 32.509 173.281 33.805C171.877 35.047 169.96 35.668 167.53 35.668ZM218.013 24.49C220.227 24.49 221.955 25.111 223.197 26.353C224.493 27.541 225.087 29.107 224.979 31.051L221.496 75.844C221.334 77.842 220.578 79.462 219.228 80.704C217.878 81.892 216.123 82.486 213.963 82.486C212.073 82.486 210.561 82.027 209.427 81.109C208.293 80.137 207.618 78.868 207.402 77.302C206.106 79.03 204.432 80.353 202.38 81.271C200.382 82.189 198.114 82.648 195.576 82.648C192.228 82.648 189.258 81.892 186.666 80.38C184.128 78.814 182.13 76.6 180.672 73.738C179.268 70.876 178.566 67.474 178.566 63.532C178.566 59.212 179.376 55.351 180.996 51.949C182.616 48.547 184.857 45.901 187.719 44.011C190.635 42.121 193.983 41.176 197.763 41.176C202.677 41.176 206.538 42.877 209.346 46.279L210.561 30.727C210.669 28.891 211.398 27.406 212.748 26.272C214.152 25.084 215.907 24.49 218.013 24.49ZM200.598 72.037C203.028 72.037 204.945 71.065 206.349 69.121C207.753 67.177 208.455 64.639 208.455 61.507C208.455 58.321 207.807 55.918 206.511 54.298C205.215 52.624 203.352 51.787 200.922 51.787C198.438 51.787 196.467 52.759 195.009 54.703C193.551 56.647 192.822 59.266 192.822 62.56C192.822 65.584 193.497 67.933 194.847 69.607C196.197 71.227 198.114 72.037 200.598 72.037ZM251.061 82.648C246.633 82.648 242.772 81.838 239.478 80.218C236.184 78.598 233.646 76.303 231.864 73.333C230.082 70.309 229.191 66.826 229.191 62.884C229.191 58.402 230.109 54.541 231.945 51.301C233.781 48.007 236.346 45.496 239.64 43.768C242.988 42.04 246.876 41.176 251.304 41.176C255.732 41.176 259.593 41.986 262.887 43.606C266.181 45.226 268.719 47.521 270.501 50.491C272.283 53.461 273.174 56.917 273.174 60.859C273.174 65.395 272.256 69.31 270.42 72.604C268.584 75.844 265.992 78.328 262.644 80.056C259.35 81.784 255.489 82.648 251.061 82.648ZM250.818 72.037C253.68 72.037 255.732 70.957 256.974 68.797C258.27 66.637 258.918 63.883 258.918 60.535C258.918 57.565 258.297 55.378 257.055 53.974C255.867 52.516 254.031 51.787 251.547 51.787C248.685 51.787 246.606 52.867 245.31 55.027C244.068 57.133 243.447 59.833 243.447 63.127C243.447 66.151 244.041 68.392 245.229 69.85C246.471 71.308 248.334 72.037 250.818 72.037ZM299.629 82.648C295.201 82.648 291.34 81.838 288.046 80.218C284.752 78.598 282.214 76.303 280.432 73.333C278.65 70.309 277.759 66.826 277.759 62.884C277.759 58.402 278.677 54.541 280.513 51.301C282.349 48.007 284.914 45.496 288.208 43.768C291.556 42.04 295.444 41.176 299.872 41.176C304.3 41.176 308.161 41.986 311.455 43.606C314.749 45.226 317.287 47.521 319.069 50.491C320.851 53.461 321.742 56.917 321.742 60.859C321.742 65.395 320.824 69.31 318.988 72.604C317.152 75.844 314.56 78.328 311.212 80.056C307.918 81.784 304.057 82.648 299.629 82.648ZM299.386 72.037C302.248 72.037 304.3 70.957 305.542 68.797C306.838 66.637 307.486 63.883 307.486 60.535C307.486 57.565 306.865 55.378 305.623 53.974C304.435 52.516 302.599 51.787 300.115 51.787C297.253 51.787 295.174 52.867 293.878 55.027C292.636 57.133 292.015 59.833 292.015 63.127C292.015 66.151 292.609 68.392 293.797 69.85C295.039 71.308 296.902 72.037 299.386 72.037ZM348.198 82.648C343.77 82.648 339.909 81.838 336.615 80.218C333.321 78.598 330.783 76.303 329.001 73.333C327.219 70.309 326.328 66.826 326.328 62.884C326.328 58.402 327.246 54.541 329.082 51.301C330.918 48.007 333.483 45.496 336.777 43.768C340.125 42.04 344.013 41.176 348.441 41.176C352.869 41.176 356.73 41.986 360.024 43.606C363.318 45.226 365.856 47.521 367.638 50.491C369.42 53.461 370.311 56.917 370.311 60.859C370.311 65.395 369.393 69.31 367.557 72.604C365.721 75.844 363.129 78.328 359.781 80.056C356.487 81.784 352.626 82.648 348.198 82.648ZM347.955 72.037C350.817 72.037 352.869 70.957 354.111 68.797C355.407 66.637 356.055 63.883 356.055 60.535C356.055 57.565 355.434 55.378 354.192 53.974C353.004 52.516 351.168 51.787 348.684 51.787C345.822 51.787 343.743 52.867 342.447 55.027C341.205 57.133 340.584 59.833 340.584 63.127C340.584 66.151 341.178 68.392 342.366 69.85C343.608 71.308 345.471 72.037 347.955 72.037Z" fill="white"/>
</g>
<defs>
<filter id="filter0_d" x="2.31613" y="21.817" width="370.994" height="79.492" filterUnits="userSpaceOnUse" color-interpolation-filters="sRGB">
<feFlood flood-opacity="0" result="BackgroundImageFix"/>
<feColorMatrix in="SourceAlpha" type="matrix" values="0 0 0 0 0 0 0 0 0 0 0 0 0 0 0 0 0 0 127 0"/>
<feOffset dx="3" dy="4"/>
<feColorMatrix type="matrix" values="0 0 0 0 0 0 0 0 0 0 0 0 0 0 0 0 0 0 1 0"/>
<feBlend mode="normal" in2="BackgroundImageFix" result="effect1_dropShadow"/>
<feBlend mode="normal" in="SourceGraphic" in2="effect1_dropShadow" result="shape"/>
</filter>
</defs>
</svg>
