<svg width="374" height="111" viewBox="0 0 374 111" fill="none" xmlns="http://www.w3.org/2000/svg">
<path fill-rule="evenodd" clip-rule="evenodd" d="M351 75C357.075 75 362 70.5228 362 65C362 59.4772 357.075 55 351 55C344.925 55 340 59.4772 340 65C340 70.5228 344.925 75 351 75Z" fill="#F0F113"/>
<path fill-rule="evenodd" clip-rule="evenodd" d="M303 75C309.075 75 314 70.5228 314 65C314 59.4772 309.075 55 303 55C296.925 55 292 59.4772 292 65C292 70.5228 296.925 75 303 75Z" fill="#F0F113"/>
<path fill-rule="evenodd" clip-rule="evenodd" d="M254 75C260.075 75 265 70.5228 265 65C265 59.4772 260.075 55 254 55C247.925 55 243 59.4772 243 65C243 70.5228 247.925 75 254 75Z" fill="#F0F113"/>
<path d="M28.8871 86.729C24.7291 86.729 20.8681 86.324 17.3041 85.514C13.7401 84.704 10.8511 83.678 8.63713 82.436C7.55713 81.734 6.72013 80.87 6.12612 79.844C5.58613 78.764 5.31613 77.657 5.31613 76.523C5.31613 75.011 5.77513 73.688 6.69313 72.554C7.61113 71.42 8.82613 70.853 10.3381 70.853C11.5801 70.853 12.8491 71.231 14.1451 71.987C15.8731 72.851 18.0871 73.634 20.7871 74.336C23.5411 74.984 26.4571 75.308 29.5351 75.308C32.6131 75.308 34.9621 74.903 36.5821 74.093C38.2021 73.283 39.0121 72.095 39.0121 70.529C39.0121 68.855 38.1211 67.559 36.3391 66.641C34.5571 65.669 31.8031 64.643 28.0771 63.563C24.0811 62.375 20.8141 61.214 18.2761 60.08C15.7381 58.946 13.5511 57.272 11.7151 55.058C9.87913 52.79 8.96113 49.874 8.96113 46.31C8.96113 42.692 9.96013 39.506 11.9581 36.752C14.0101 33.998 16.8991 31.892 20.6251 30.434C24.3511 28.922 28.6981 28.166 33.6661 28.166C37.7161 28.166 41.4421 28.625 44.8441 29.543C48.3001 30.407 51.0001 31.595 52.9441 33.107C54.5641 34.349 55.3741 35.996 55.3741 38.048C55.3741 39.614 54.8611 40.991 53.8351 42.179C52.8631 43.313 51.5941 43.88 50.0281 43.88C48.6781 43.88 47.3821 43.475 46.1401 42.665C44.4661 41.855 42.4951 41.153 40.2271 40.559C37.9591 39.911 35.6371 39.587 33.2611 39.587C30.3451 39.587 28.0231 40.073 26.2951 41.045C24.6211 41.963 23.7841 43.259 23.7841 44.933C23.7841 46.661 24.6481 47.984 26.3761 48.902C28.1581 49.82 30.9661 50.846 34.8001 51.98C38.7421 53.168 41.9551 54.329 44.4391 55.463C46.9771 56.543 49.1641 58.163 51.0001 60.323C52.8361 62.483 53.7541 65.318 53.7541 68.828C53.7541 74.552 51.5941 78.98 47.2741 82.112C42.9541 85.19 36.8251 86.729 28.8871 86.729ZM98.1472 45.338C100.307 45.338 101.981 45.959 103.169 47.201C104.411 48.389 104.951 49.982 104.789 51.98L101.468 94.748C101.36 96.638 100.55 98.204 99.0382 99.446C97.5802 100.688 95.7442 101.309 93.5302 101.309C91.4242 101.309 89.7772 100.715 88.5892 99.527C87.4552 98.393 86.9422 96.881 87.0502 94.991L88.1032 81.626C86.8072 83.246 85.1602 84.488 83.1622 85.352C81.2182 86.216 79.0312 86.648 76.6012 86.648C73.2532 86.648 70.2832 85.892 67.6912 84.38C65.1532 82.814 63.1822 80.6 61.7782 77.738C60.3742 74.876 59.6722 71.474 59.6722 67.532C59.6722 63.212 60.4552 59.351 62.0212 55.949C63.6412 52.547 65.8822 49.901 68.7442 48.011C71.6602 46.121 75.0082 45.176 78.7882 45.176C83.9182 45.176 87.9142 47.039 90.7762 50.765C91.1542 49.091 91.9912 47.768 93.2872 46.796C94.5832 45.824 96.2032 45.338 98.1472 45.338ZM81.6232 76.037C84.0532 76.037 85.9702 75.065 87.3742 73.121C88.8322 71.177 89.5612 68.639 89.5612 65.507C89.5612 62.321 88.9132 59.918 87.6172 58.298C86.3212 56.624 84.4312 55.787 81.9472 55.787C79.4632 55.787 77.4922 56.759 76.0342 58.703C74.6302 60.647 73.9282 63.239 73.9282 66.479C73.9282 69.557 74.5762 71.933 75.8722 73.607C77.2222 75.227 79.1392 76.037 81.6232 76.037ZM146.747 45.338C149.015 45.338 150.716 45.932 151.85 47.12C153.038 48.308 153.524 49.928 153.308 51.98L151.121 79.925C150.959 81.869 150.176 83.462 148.772 84.704C147.422 85.892 145.64 86.486 143.426 86.486C141.59 86.486 140.105 86.027 138.971 85.109C137.837 84.191 137.216 82.949 137.108 81.383C135.704 83.003 133.895 84.299 131.681 85.271C129.521 86.189 127.172 86.648 124.634 86.648C120.314 86.648 117.02 85.433 114.752 83.003C112.484 80.519 111.35 76.928 111.35 72.23C111.35 71.636 111.404 70.691 111.512 69.395L112.889 51.98C113.051 49.928 113.834 48.308 115.238 47.12C116.642 45.932 118.478 45.338 120.746 45.338C122.96 45.338 124.634 45.932 125.768 47.12C126.956 48.308 127.469 49.928 127.307 51.98L125.93 68.585L125.849 69.8C125.849 71.69 126.281 73.148 127.145 74.174C128.009 75.146 129.278 75.632 130.952 75.632C132.95 75.632 134.516 74.957 135.65 73.607C136.784 72.203 137.432 70.34 137.594 68.018L138.89 51.98C139.106 49.928 139.916 48.308 141.32 47.12C142.724 45.932 144.533 45.338 146.747 45.338ZM166.318 86.486C164.266 86.486 162.565 85.919 161.215 84.785C159.919 83.651 159.352 82.004 159.514 79.844L161.782 52.061C161.998 49.847 162.835 48.173 164.293 47.039C165.751 45.905 167.506 45.338 169.558 45.338C171.61 45.338 173.284 45.905 174.58 47.039C175.876 48.173 176.416 49.847 176.2 52.061L173.932 79.844C173.77 82.004 172.96 83.651 171.502 84.785C170.098 85.919 168.37 86.486 166.318 86.486ZM170.53 39.668C168.1 39.668 166.156 39.047 164.698 37.805C163.294 36.509 162.592 34.808 162.592 32.702C162.592 30.596 163.294 28.922 164.698 27.68C166.156 26.438 168.1 25.817 170.53 25.817C172.906 25.817 174.823 26.438 176.281 27.68C177.739 28.922 178.468 30.596 178.468 32.702C178.468 34.808 177.739 36.509 176.281 37.805C174.877 39.047 172.96 39.668 170.53 39.668ZM221.013 28.49C223.227 28.49 224.955 29.111 226.197 30.353C227.493 31.541 228.087 33.107 227.979 35.051L224.496 79.844C224.334 81.842 223.578 83.462 222.228 84.704C220.878 85.892 219.123 86.486 216.963 86.486C215.073 86.486 213.561 86.027 212.427 85.109C211.293 84.137 210.618 82.868 210.402 81.302C209.106 83.03 207.432 84.353 205.38 85.271C203.382 86.189 201.114 86.648 198.576 86.648C195.228 86.648 192.258 85.892 189.666 84.38C187.128 82.814 185.13 80.6 183.672 77.738C182.268 74.876 181.566 71.474 181.566 67.532C181.566 63.212 182.376 59.351 183.996 55.949C185.616 52.547 187.857 49.901 190.719 48.011C193.635 46.121 196.983 45.176 200.763 45.176C205.677 45.176 209.538 46.877 212.346 50.279L213.561 34.727C213.669 32.891 214.398 31.406 215.748 30.272C217.152 29.084 218.907 28.49 221.013 28.49ZM203.598 76.037C206.028 76.037 207.945 75.065 209.349 73.121C210.753 71.177 211.455 68.639 211.455 65.507C211.455 62.321 210.807 59.918 209.511 58.298C208.215 56.624 206.352 55.787 203.922 55.787C201.438 55.787 199.467 56.759 198.009 58.703C196.551 60.647 195.822 63.266 195.822 66.56C195.822 69.584 196.497 71.933 197.847 73.607C199.197 75.227 201.114 76.037 203.598 76.037ZM254.061 86.648C249.633 86.648 245.772 85.838 242.478 84.218C239.184 82.598 236.646 80.303 234.864 77.333C233.082 74.309 232.191 70.826 232.191 66.884C232.191 62.402 233.109 58.541 234.945 55.301C236.781 52.007 239.346 49.496 242.64 47.768C245.988 46.04 249.876 45.176 254.304 45.176C258.732 45.176 262.593 45.986 265.887 47.606C269.181 49.226 271.719 51.521 273.501 54.491C275.283 57.461 276.174 60.917 276.174 64.859C276.174 69.395 275.256 73.31 273.42 76.604C271.584 79.844 268.992 82.328 265.644 84.056C262.35 85.784 258.489 86.648 254.061 86.648ZM253.818 76.037C256.68 76.037 258.732 74.957 259.974 72.797C261.27 70.637 261.918 67.883 261.918 64.535C261.918 61.565 261.297 59.378 260.055 57.974C258.867 56.516 257.031 55.787 254.547 55.787C251.685 55.787 249.606 56.867 248.31 59.027C247.068 61.133 246.447 63.833 246.447 67.127C246.447 70.151 247.041 72.392 248.229 73.85C249.471 75.308 251.334 76.037 253.818 76.037ZM302.629 86.648C298.201 86.648 294.34 85.838 291.046 84.218C287.752 82.598 285.214 80.303 283.432 77.333C281.65 74.309 280.759 70.826 280.759 66.884C280.759 62.402 281.677 58.541 283.513 55.301C285.349 52.007 287.914 49.496 291.208 47.768C294.556 46.04 298.444 45.176 302.872 45.176C307.3 45.176 311.161 45.986 314.455 47.606C317.749 49.226 320.287 51.521 322.069 54.491C323.851 57.461 324.742 60.917 324.742 64.859C324.742 69.395 323.824 73.31 321.988 76.604C320.152 79.844 317.56 82.328 314.212 84.056C310.918 85.784 307.057 86.648 302.629 86.648ZM302.386 76.037C305.248 76.037 307.3 74.957 308.542 72.797C309.838 70.637 310.486 67.883 310.486 64.535C310.486 61.565 309.865 59.378 308.623 57.974C307.435 56.516 305.599 55.787 303.115 55.787C300.253 55.787 298.174 56.867 296.878 59.027C295.636 61.133 295.015 63.833 295.015 67.127C295.015 70.151 295.609 72.392 296.797 73.85C298.039 75.308 299.902 76.037 302.386 76.037ZM351.198 86.648C346.77 86.648 342.909 85.838 339.615 84.218C336.321 82.598 333.783 80.303 332.001 77.333C330.219 74.309 329.328 70.826 329.328 66.884C329.328 62.402 330.246 58.541 332.082 55.301C333.918 52.007 336.483 49.496 339.777 47.768C343.125 46.04 347.013 45.176 351.441 45.176C355.869 45.176 359.73 45.986 363.024 47.606C366.318 49.226 368.856 51.521 370.638 54.491C372.42 57.461 373.311 60.917 373.311 64.859C373.311 69.395 372.393 73.31 370.557 76.604C368.721 79.844 366.129 82.328 362.781 84.056C359.487 85.784 355.626 86.648 351.198 86.648ZM350.955 76.037C353.817 76.037 355.869 74.957 357.111 72.797C358.407 70.637 359.055 67.883 359.055 64.535C359.055 61.565 358.434 59.378 357.192 57.974C356.004 56.516 354.168 55.787 351.684 55.787C348.822 55.787 346.743 56.867 345.447 59.027C344.205 61.133 343.584 63.833 343.584 67.127C343.584 70.151 344.178 72.392 345.366 73.85C346.608 75.308 348.471 76.037 350.955 76.037Z" fill="black"/>
<path d="M25.8871 82.729C21.7291 82.729 17.8681 82.324 14.3041 81.514C10.7401 80.704 7.85113 79.678 5.63713 78.436C4.55713 77.734 3.72013 76.87 3.12612 75.844C2.58613 74.764 2.31613 73.657 2.31613 72.523C2.31613 71.011 2.77513 69.688 3.69313 68.554C4.61113 67.42 5.82613 66.853 7.33813 66.853C8.58013 66.853 9.84913 67.231 11.1451 67.987C12.8731 68.851 15.0871 69.634 17.7871 70.336C20.5411 70.984 23.4571 71.308 26.5351 71.308C29.6131 71.308 31.9621 70.903 33.5821 70.093C35.2021 69.283 36.0121 68.095 36.0121 66.529C36.0121 64.855 35.1211 63.559 33.3391 62.641C31.5571 61.669 28.8031 60.643 25.0771 59.563C21.0811 58.375 17.8141 57.214 15.2761 56.08C12.7381 54.946 10.5511 53.272 8.71513 51.058C6.87913 48.79 5.96113 45.874 5.96113 42.31C5.96113 38.692 6.96013 35.506 8.95813 32.752C11.0101 29.998 13.8991 27.892 17.6251 26.434C21.3511 24.922 25.6981 24.166 30.6661 24.166C34.7161 24.166 38.4421 24.625 41.8441 25.543C45.3001 26.407 48.0001 27.595 49.9441 29.107C51.5641 30.349 52.3741 31.996 52.3741 34.048C52.3741 35.614 51.8611 36.991 50.8351 38.179C49.8631 39.313 48.5941 39.88 47.0281 39.88C45.6781 39.88 44.3821 39.475 43.1401 38.665C41.4661 37.855 39.4951 37.153 37.2271 36.559C34.9591 35.911 32.6371 35.587 30.2611 35.587C27.3451 35.587 25.0231 36.073 23.2951 37.045C21.6211 37.963 20.7841 39.259 20.7841 40.933C20.7841 42.661 21.6481 43.984 23.3761 44.902C25.1581 45.82 27.9661 46.846 31.8001 47.98C35.7421 49.168 38.9551 50.329 41.4391 51.463C43.9771 52.543 46.1641 54.163 48.0001 56.323C49.8361 58.483 50.7541 61.318 50.7541 64.828C50.7541 70.552 48.5941 74.98 44.2741 78.112C39.9541 81.19 33.8251 82.729 25.8871 82.729ZM95.1472 41.338C97.3072 41.338 98.9812 41.959 100.169 43.201C101.411 44.389 101.951 45.982 101.789 47.98L98.4682 90.748C98.3602 92.638 97.5502 94.204 96.0382 95.446C94.5802 96.688 92.7442 97.309 90.5302 97.309C88.4242 97.309 86.7772 96.715 85.5892 95.527C84.4552 94.393 83.9422 92.881 84.0502 90.991L85.1032 77.626C83.8072 79.246 82.1602 80.488 80.1622 81.352C78.2182 82.216 76.0312 82.648 73.6012 82.648C70.2532 82.648 67.2832 81.892 64.6912 80.38C62.1532 78.814 60.1822 76.6 58.7782 73.738C57.3742 70.876 56.6722 67.474 56.6722 63.532C56.6722 59.212 57.4552 55.351 59.0212 51.949C60.6412 48.547 62.8822 45.901 65.7442 44.011C68.6602 42.121 72.0082 41.176 75.7882 41.176C80.9182 41.176 84.9142 43.039 87.7762 46.765C88.1542 45.091 88.9912 43.768 90.2872 42.796C91.5832 41.824 93.2032 41.338 95.1472 41.338ZM78.6232 72.037C81.0532 72.037 82.9702 71.065 84.3742 69.121C85.8322 67.177 86.5612 64.639 86.5612 61.507C86.5612 58.321 85.9132 55.918 84.6172 54.298C83.3212 52.624 81.4312 51.787 78.9472 51.787C76.4632 51.787 74.4922 52.759 73.0342 54.703C71.6302 56.647 70.9282 59.239 70.9282 62.479C70.9282 65.557 71.5762 67.933 72.8722 69.607C74.2222 71.227 76.1392 72.037 78.6232 72.037ZM143.747 41.338C146.015 41.338 147.716 41.932 148.85 43.12C150.038 44.308 150.524 45.928 150.308 47.98L148.121 75.925C147.959 77.869 147.176 79.462 145.772 80.704C144.422 81.892 142.64 82.486 140.426 82.486C138.59 82.486 137.105 82.027 135.971 81.109C134.837 80.191 134.216 78.949 134.108 77.383C132.704 79.003 130.895 80.299 128.681 81.271C126.521 82.189 124.172 82.648 121.634 82.648C117.314 82.648 114.02 81.433 111.752 79.003C109.484 76.519 108.35 72.928 108.35 68.23C108.35 67.636 108.404 66.691 108.512 65.395L109.889 47.98C110.051 45.928 110.834 44.308 112.238 43.12C113.642 41.932 115.478 41.338 117.746 41.338C119.96 41.338 121.634 41.932 122.768 43.12C123.956 44.308 124.469 45.928 124.307 47.98L122.93 64.585L122.849 65.8C122.849 67.69 123.281 69.148 124.145 70.174C125.009 71.146 126.278 71.632 127.952 71.632C129.95 71.632 131.516 70.957 132.65 69.607C133.784 68.203 134.432 66.34 134.594 64.018L135.89 47.98C136.106 45.928 136.916 44.308 138.32 43.12C139.724 41.932 141.533 41.338 143.747 41.338ZM163.318 82.486C161.266 82.486 159.565 81.919 158.215 80.785C156.919 79.651 156.352 78.004 156.514 75.844L158.782 48.061C158.998 45.847 159.835 44.173 161.293 43.039C162.751 41.905 164.506 41.338 166.558 41.338C168.61 41.338 170.284 41.905 171.58 43.039C172.876 44.173 173.416 45.847 173.2 48.061L170.932 75.844C170.77 78.004 169.96 79.651 168.502 80.785C167.098 81.919 165.37 82.486 163.318 82.486ZM167.53 35.668C165.1 35.668 163.156 35.047 161.698 33.805C160.294 32.509 159.592 30.808 159.592 28.702C159.592 26.596 160.294 24.922 161.698 23.68C163.156 22.438 165.1 21.817 167.53 21.817C169.906 21.817 171.823 22.438 173.281 23.68C174.739 24.922 175.468 26.596 175.468 28.702C175.468 30.808 174.739 32.509 173.281 33.805C171.877 35.047 169.96 35.668 167.53 35.668ZM218.013 24.49C220.227 24.49 221.955 25.111 223.197 26.353C224.493 27.541 225.087 29.107 224.979 31.051L221.496 75.844C221.334 77.842 220.578 79.462 219.228 80.704C217.878 81.892 216.123 82.486 213.963 82.486C212.073 82.486 210.561 82.027 209.427 81.109C208.293 80.137 207.618 78.868 207.402 77.302C206.106 79.03 204.432 80.353 202.38 81.271C200.382 82.189 198.114 82.648 195.576 82.648C192.228 82.648 189.258 81.892 186.666 80.38C184.128 78.814 182.13 76.6 180.672 73.738C179.268 70.876 178.566 67.474 178.566 63.532C178.566 59.212 179.376 55.351 180.996 51.949C182.616 48.547 184.857 45.901 187.719 44.011C190.635 42.121 193.983 41.176 197.763 41.176C202.677 41.176 206.538 42.877 209.346 46.279L210.561 30.727C210.669 28.891 211.398 27.406 212.748 26.272C214.152 25.084 215.907 24.49 218.013 24.49ZM200.598 72.037C203.028 72.037 204.945 71.065 206.349 69.121C207.753 67.177 208.455 64.639 208.455 61.507C208.455 58.321 207.807 55.918 206.511 54.298C205.215 52.624 203.352 51.787 200.922 51.787C198.438 51.787 196.467 52.759 195.009 54.703C193.551 56.647 192.822 59.266 192.822 62.56C192.822 65.584 193.497 67.933 194.847 69.607C196.197 71.227 198.114 72.037 200.598 72.037ZM251.061 82.648C246.633 82.648 242.772 81.838 239.478 80.218C236.184 78.598 233.646 76.303 231.864 73.333C230.082 70.309 229.191 66.826 229.191 62.884C229.191 58.402 230.109 54.541 231.945 51.301C233.781 48.007 236.346 45.496 239.64 43.768C242.988 42.04 246.876 41.176 251.304 41.176C255.732 41.176 259.593 41.986 262.887 43.606C266.181 45.226 268.719 47.521 270.501 50.491C272.283 53.461 273.174 56.917 273.174 60.859C273.174 65.395 272.256 69.31 270.42 72.604C268.584 75.844 265.992 78.328 262.644 80.056C259.35 81.784 255.489 82.648 251.061 82.648ZM250.818 72.037C253.68 72.037 255.732 70.957 256.974 68.797C258.27 66.637 258.918 63.883 258.918 60.535C258.918 57.565 258.297 55.378 257.055 53.974C255.867 52.516 254.031 51.787 251.547 51.787C248.685 51.787 246.606 52.867 245.31 55.027C244.068 57.133 243.447 59.833 243.447 63.127C243.447 66.151 244.041 68.392 245.229 69.85C246.471 71.308 248.334 72.037 250.818 72.037ZM299.629 82.648C295.201 82.648 291.34 81.838 288.046 80.218C284.752 78.598 282.214 76.303 280.432 73.333C278.65 70.309 277.759 66.826 277.759 62.884C277.759 58.402 278.677 54.541 280.513 51.301C282.349 48.007 284.914 45.496 288.208 43.768C291.556 42.04 295.444 41.176 299.872 41.176C304.3 41.176 308.161 41.986 311.455 43.606C314.749 45.226 317.287 47.521 319.069 50.491C320.851 53.461 321.742 56.917 321.742 60.859C321.742 65.395 320.824 69.31 318.988 72.604C317.152 75.844 314.56 78.328 311.212 80.056C307.918 81.784 304.057 82.648 299.629 82.648ZM299.386 72.037C302.248 72.037 304.3 70.957 305.542 68.797C306.838 66.637 307.486 63.883 307.486 60.535C307.486 57.565 306.865 55.378 305.623 53.974C304.435 52.516 302.599 51.787 300.115 51.787C297.253 51.787 295.174 52.867 293.878 55.027C292.636 57.133 292.015 59.833 292.015 63.127C292.015 66.151 292.609 68.392 293.797 69.85C295.039 71.308 296.902 72.037 299.386 72.037ZM348.198 82.648C343.77 82.648 339.909 81.838 336.615 80.218C333.321 78.598 330.783 76.303 329.001 73.333C327.219 70.309 326.328 66.826 326.328 62.884C326.328 58.402 327.246 54.541 329.082 51.301C330.918 48.007 333.483 45.496 336.777 43.768C340.125 42.04 344.013 41.176 348.441 41.176C352.869 41.176 356.73 41.986 360.024 43.606C363.318 45.226 365.856 47.521 367.638 50.491C369.42 53.461 370.311 56.917 370.311 60.859C370.311 65.395 369.393 69.31 367.557 72.604C365.721 75.844 363.129 78.328 359.781 80.056C356.487 81.784 352.626 82.648 348.198 82.648ZM347.955 72.037C350.817 72.037 352.869 70.957 354.111 68.797C355.407 66.637 356.055 63.883 356.055 60.535C356.055 57.565 355.434 55.378 354.192 53.974C353.004 52.516 351.168 51.787 348.684 51.787C345.822 51.787 343.743 52.867 342.447 55.027C341.205 57.133 340.584 59.833 340.584 63.127C340.584 66.151 341.178 68.392 342.366 69.85C343.608 71.308 345.471 72.037 347.955 72.037Z" fill="white"/>
</svg>
