<svg width="22" height="18" viewBox="0 0 22 18" fill="none" xmlns="http://www.w3.org/2000/svg">
<path d="M6.91856 17.8761C15.2205 17.8761 19.7613 10.9981 19.7613 5.03342C19.7613 4.83806 19.7613 4.64358 19.7481 4.44998C20.6315 3.81103 21.394 3.01988 22 2.11358C21.1762 2.47861 20.3023 2.71799 19.4075 2.82374C20.3498 2.25965 21.055 1.37242 21.3919 0.327184C20.5059 0.852945 19.5366 1.22348 18.5258 1.42278C17.8452 0.699147 16.9452 0.219972 15.9648 0.0594117C14.9845 -0.101149 13.9786 0.0658561 13.1028 0.534583C12.227 1.00331 11.53 1.74763 11.1198 2.65235C10.7097 3.55708 10.6091 4.57178 10.8337 5.53942C9.03914 5.44946 7.28358 4.98312 5.68096 4.17066C4.07835 3.35821 2.6645 2.21781 1.5312 0.823504C0.954001 1.81717 0.777216 2.99346 1.03684 4.11289C1.29647 5.23232 1.97298 6.21071 2.92864 6.84886C2.21033 6.82757 1.50769 6.6338 0.88 6.2839C0.88 6.30238 0.88 6.32174 0.88 6.3411C0.880285 7.38322 1.24103 8.39315 1.90105 9.19961C2.56107 10.0061 3.47972 10.5594 4.5012 10.7657C3.83669 10.947 3.13947 10.9735 2.46312 10.8432C2.75155 11.7401 3.31308 12.5243 4.06918 13.0864C4.82528 13.6484 5.73814 13.9601 6.68008 13.9777C5.08177 15.2339 3.10733 15.9158 1.07448 15.9137C0.715355 15.9131 0.35658 15.8913 0 15.8486C2.06416 17.1733 4.46592 17.8759 6.91856 17.8726" fill="#1DA1F2"/>
</svg>
