<svg xmlns="http://www.w3.org/2000/svg" viewBox="0 0 200 167.39"><defs><style>.cls-1{fill:#6ac6e7;}</style></defs><path class="cls-1" d="M179.57,41.74v5.38c0,56.09-41.31,120.26-116.52,120.26A112.57,112.57,0,0,1,0,148.54,71.42,71.42,0,0,0,10,149,81,81,0,0,0,60.87,131c-17.83-.45-33-12.56-38.26-29.62,2.17.9,4.78.9,7.39.9A42.32,42.32,0,0,0,40.87,101c-18.7-4-32.61-21.09-32.61-41.73v-.45a41.53,41.53,0,0,0,18.26,5.38A43.08,43.08,0,0,1,13.91,7.63c20.43,25.58,50.43,42.63,84.78,44a32.88,32.88,0,0,1-1.3-9.42C97.39,18.85,115.65,0,138.69,0a39.74,39.74,0,0,1,29.57,13,83.4,83.4,0,0,0,26.08-9.88,43.1,43.1,0,0,1-17.82,23.33A101.45,101.45,0,0,0,200,19.74a97.15,97.15,0,0,1-20.43,22"/></svg>